<?xml version="1.0" standalone="no"?>
<!DOCTYPE svg PUBLIC "-//W3C//DTD SVG 20010904//EN"
 "http://www.w3.org/TR/2001/REC-SVG-20010904/DTD/svg10.dtd">
<svg version="1.0" xmlns="http://www.w3.org/2000/svg"
 width="120pt" height="150pt" viewBox="0 0 394.000000 137.000000"
 preserveAspectRatio="xMidYMid meet">
<metadata>
Created by potrace 1.16, written by Peter Selinger 2001-2019
</metadata>
<g transform="translate(0.000000,1273.000000) scale(0.100000,-0.100000)"
fill="#000000" stroke="none">
<path d="M2755 12714 c-105 -19 -232 -64 -302 -105 -90 -54 -176 -147 -223
-242 -51 -105 -75 -202 -100 -402 -11 -88 -25 -178 -31 -200 -36 -127 -114
-194 -276 -236 -42 -10 -78 -20 -79 -22 -8 -8 65 -83 125 -128 78 -60 202
-121 364 -179 65 -24 114 -46 110 -50 -4 -4 -532 -387 -1173 -850 -641 -464
-1167 -844 -1168 -846 -2 -1 44 -77 103 -168 81 -125 112 -165 124 -161 9 2
398 178 865 390 468 211 851 384 852 382 1 -1 -297 -796 -662 -1766 -366 -969
-663 -1765 -661 -1768 3 -2 160 9 349 25 188 16 345 28 347 26 2 -2 -133 -402
-300 -889 l-304 -885 -117 0 -118 0 0 -210 0 -210 6665 0 6665 0 0 210 0 210
-1773 2 -1772 3 470 980 c258 539 475 981 480 982 6 1 386 -332 845 -739 459
-407 840 -743 847 -745 13 -5 386 236 381 246 -2 4 -379 567 -838 1251 -459
684 -836 1247 -838 1252 -2 4 327 172 730 374 403 201 735 368 737 370 4 3
-112 287 -127 311 -6 10 -58 0 -212 -38 -285 -70 -1359 -329 -1365 -329 -2 0
10 15 26 33 121 130 190 412 144 592 -8 33 -36 103 -61 154 -39 79 -62 110
-133 181 -97 97 -174 143 -306 181 -115 34 -317 34 -425 0 -401 -125 -607
-512 -475 -894 62 -180 216 -339 396 -409 32 -13 59 -25 59 -28 -1 -9 -1730
-995 -1740 -993 -6 2 -278 210 -605 464 l-596 461 63 37 c80 47 184 144 228
215 19 31 37 56 40 55 3 0 21 -25 40 -56 91 -144 264 -212 474 -185 77 10 221
45 235 57 8 8 -53 148 -88 202 -109 167 -267 245 -464 229 -45 -3 -93 -9 -107
-12 l-25 -5 -1 83 c0 106 -16 172 -66 278 -33 69 -56 101 -127 171 -72 73
-101 94 -181 132 -125 60 -229 82 -365 74 -214 -11 -409 -113 -530 -278 l-42
-58 -32 44 c-100 139 -290 195 -496 146 -89 -22 -255 -93 -255 -110 0 -23 106
-164 160 -214 135 -125 310 -163 500 -107 19 5 36 10 37 10 2 0 3 -44 4 -97 0
-60 7 -125 18 -165 9 -38 15 -68 12 -68 -3 0 -60 17 -126 39 -86 27 -313 130
-797 360 -372 176 -680 321 -685 321 -8 0 -195 -341 -200 -365 -2 -5 252 -167
564 -360 311 -192 676 -418 810 -501 l244 -151 -821 -643 c-452 -354 -818
-646 -813 -650 4 -5 130 -58 278 -118 149 -61 269 -114 268 -119 -1 -5 -213
-373 -472 -818 -259 -446 -467 -813 -463 -816 9 -8 411 -93 416 -88 10 13
1190 1435 1195 1441 6 7 758 -286 775 -302 5 -5 50 -291 100 -637 l92 -628
-99 -3 c-55 -1 -102 0 -105 2 -3 3 -22 124 -43 268 -45 308 -43 298 -53 277
-4 -8 -37 -134 -75 -280 l-68 -264 -1043 -3 c-577 -1 -1046 2 -1049 7 -3 4
-78 20 -166 35 -88 15 -170 30 -181 33 -20 4 -8 27 136 269 l158 264 -42 123
c-181 516 -448 1298 -445 1302 3 2 128 18 278 34 150 16 275 31 277 33 1 2
-199 708 -446 1568 -247 861 -448 1569 -447 1573 1 4 245 -166 541 -378 296
-212 541 -384 543 -382 1 2 52 93 112 202 l110 198 -804 811 -804 811 82 6
c112 9 220 53 367 152 72 49 228 193 218 202 -3 3 -39 14 -81 24 -162 42 -241
109 -276 236 -6 22 -20 114 -32 204 -33 261 -73 384 -162 500 -137 178 -460
291 -702 245z m5392 -5405 c351 -188 656 -350 678 -361 l41 -20 759 291 c417
160 759 290 760 289 1 -2 -139 -646 -311 -1433 -172 -786 -313 -1431 -314
-1432 0 -2 -47 -3 -105 -3 -104 0 -105 0 -100 23 44 189 325 1496 325 1514 0
24 -206 832 -214 841 -3 2 -188 -66 -411 -152 l-407 -155 -40 20 c-22 11 -41
19 -43 17 -1 -2 118 -471 266 -1043 148 -572 268 -1046 269 -1052 0 -10 -184
-13 -890 -13 -780 0 -890 2 -890 15 0 30 70 958 73 961 1 1 94 -36 207 -82
113 -46 210 -83 216 -82 7 2 -87 411 -252 1098 -145 602 -264 1096 -264 1098
0 6 48 -19 647 -339z m-4496 -1699 c247 -530 449 -966 449 -967 0 -2 -634 -3
-1409 -3 l-1409 0 449 928 c247 510 450 930 451 934 3 7 958 78 1001 74 14 -1
122 -222 468 -966z"/>
<path d="M7810 7248 c0 -19 208 -880 214 -886 8 -7 6 -14 100 353 47 181 82
333 78 337 -9 9 -379 208 -387 208 -3 0 -5 -6 -5 -12z"/>
<path d="M8293 12716 c-189 -36 -344 -118 -469 -248 -152 -158 -224 -334 -224
-550 0 -142 20 -229 82 -357 44 -93 61 -116 147 -202 55 -56 121 -110 154
-129 32 -18 55 -36 50 -40 -4 -4 -599 -388 -1320 -855 -722 -466 -1315 -850
-1317 -853 -2 -4 69 -41 157 -83 89 -42 163 -73 165 -68 2 4 -2 18 -9 30 -14
27 -5 36 125 117 184 116 339 165 526 165 111 1 134 -2 205 -27 44 -15 94 -36
112 -47 l32 -20 48 24 c26 13 85 47 130 74 51 31 121 63 185 83 57 18 172 63
256 100 l152 68 0 -62 0 -63 93 -22 c100 -25 227 -80 304 -132 112 -76 238
-219 296 -334 26 -52 62 -151 71 -196 5 -24 12 -27 78 -37 251 -38 430 -168
546 -397 19 -38 54 -128 78 -200 l43 -130 -77 -37 c-91 -44 -232 -91 -322
-109 -82 -16 -270 -16 -335 0 -27 7 -78 23 -113 37 -35 14 -65 24 -67 22 -4
-3 707 -559 787 -616 17 -12 48 3 291 142 150 86 277 160 284 164 8 5 -12 248
-82 957 -51 523 -91 951 -90 953 1 2 161 -94 354 -212 194 -119 356 -216 362
-216 5 0 9 4 9 9 0 22 110 173 169 232 74 73 134 117 234 170 l69 36 -74 60
c-40 33 -390 311 -778 618 -388 307 -727 576 -753 598 l-48 40 49 27 c211 115
358 297 418 520 24 89 24 289 1 385 -24 98 -96 237 -166 321 -105 127 -271
231 -436 274 -104 27 -284 35 -382 16z"/>
<path d="M29852 7543 l3 -2358 24 -125 c58 -310 140 -496 290 -653 130 -137
275 -215 481 -260 78 -17 130 -21 295 -21 254 0 451 26 642 85 56 18 63 22 58
42 -3 12 -30 162 -60 332 -30 171 -57 320 -60 332 l-5 22 -65 -25 c-96 -35
-236 -57 -319 -50 -186 17 -295 129 -342 349 -31 149 -34 357 -34 2515 l0
2172 -455 0 -455 0 2 -2357z"/>
<path d="M38600 9064 c0 -792 -1 -836 -17 -829 -121 49 -279 88 -453 111 -150
20 -488 23 -635 5 -434 -52 -763 -184 -1066 -429 -290 -234 -497 -597 -584
-1026 -44 -219 -58 -370 -58 -651 -1 -491 69 -845 228 -1164 81 -162 166 -282
285 -401 390 -393 958 -590 1705 -590 499 0 975 75 1410 223 l100 34 3 2776 2
2777 -460 0 -460 0 0 -836z m-370 -1460 c102 -17 200 -45 298 -86 l72 -30 0
-1278 0 -1278 -107 -35 c-168 -55 -278 -71 -503 -71 -150 -1 -218 3 -295 18
-355 66 -647 256 -793 516 -122 216 -175 470 -175 840 -1 611 153 974 518
1215 180 119 354 181 580 205 100 11 293 3 405 -16z"/>
<path d="M23715 9574 c-16 -2 -73 -9 -125 -15 -525 -60 -1019 -318 -1248 -652
-147 -214 -219 -457 -229 -777 -16 -467 105 -789 406 -1091 166 -165 328 -272
566 -372 180 -75 468 -184 665 -252 292 -100 475 -182 652 -292 181 -112 277
-217 325 -356 21 -58 26 -91 26 -167 -1 -306 -179 -512 -547 -635 -156 -53
-309 -76 -536 -82 -508 -14 -973 81 -1367 278 -145 72 -153 76 -158 55 -3 -11
-32 -176 -65 -366 -54 -320 -57 -346 -42 -358 9 -7 64 -37 122 -66 277 -141
599 -236 974 -287 194 -26 678 -37 877 -20 526 47 925 196 1215 453 258 229
413 501 470 823 25 139 25 444 1 570 -55 277 -149 462 -342 663 -156 164 -300
268 -500 363 -128 60 -483 195 -787 298 -253 86 -370 135 -513 214 -193 107
-310 201 -384 313 -71 106 -96 191 -95 324 0 164 40 271 139 378 167 181 478
282 862 282 459 -1 921 -113 1256 -306 44 -25 82 -42 86 -37 4 4 36 167 71
361 46 254 61 358 54 370 -14 21 -226 128 -357 180 -358 141 -695 201 -1162
207 -154 2 -293 1 -310 -1z"/>
<path d="M14490 6845 l0 -2655 1775 0 1775 0 0 380 0 380 -1305 0 -1305 0 0
835 0 835 1155 0 1155 0 0 370 0 370 -1155 0 -1155 0 0 690 0 690 1305 0 1305
0 0 380 0 380 -1775 0 -1775 0 0 -2655z"/>
<path d="M27295 8374 c-228 -19 -575 -77 -805 -134 -111 -28 -422 -118 -428
-125 -3 -2 119 -726 123 -733 2 -1 33 9 71 23 211 79 603 174 869 210 160 22
534 31 647 16 303 -40 507 -160 600 -351 64 -131 88 -270 88 -517 l0 -141
-617 -5 c-652 -5 -713 -8 -958 -58 -628 -127 -930 -415 -1011 -961 -20 -139
-15 -452 10 -563 86 -383 292 -618 674 -769 288 -115 579 -164 1022 -173 471
-10 895 31 1327 127 131 29 377 96 436 119 l27 11 0 1342 c0 1101 -3 1362 -15
1449 -95 718 -521 1105 -1340 1219 -79 11 -624 21 -720 14z m1165 -2924 l0
-620 -27 -11 c-196 -74 -626 -118 -891 -90 -343 36 -587 170 -683 376 -43 92
-59 168 -59 281 0 381 243 609 710 663 149 17 153 18 563 19 l387 2 0 -620z"/>
<path d="M19875 8364 c-212 -22 -414 -65 -565 -121 -452 -168 -691 -438 -767
-867 -19 -112 -22 -369 -4 -481 46 -286 191 -516 436 -690 164 -117 387 -193
920 -310 472 -104 728 -226 796 -379 48 -110 45 -237 -11 -351 -112 -230 -481
-340 -1030 -306 -376 23 -678 91 -964 217 -55 25 -101 42 -104 39 -9 -9 -130
-710 -123 -717 23 -25 375 -145 535 -183 533 -125 1247 -134 1693 -21 547 139
853 428 943 896 54 277 25 600 -73 812 -93 203 -272 386 -484 496 -140 73
-458 165 -833 242 -261 54 -488 132 -609 209 -117 75 -181 183 -181 305 0 218
144 361 445 443 96 26 109 27 355 27 223 1 271 -2 383 -22 234 -42 439 -111
637 -212 52 -27 95 -48 97 -47 1 1 32 166 69 365 43 236 63 367 57 373 -38 38
-416 171 -608 214 -251 56 -358 67 -675 70 -162 2 -313 1 -335 -1z"/>
<path d="M31683 6908 c3 -1222 5 -1374 20 -1468 51 -312 139 -541 286 -737
233 -311 649 -519 1186 -593 126 -17 569 -24 785 -11 548 32 946 113 1308 266
l112 47 0 1929 0 1929 -460 0 -460 0 0 -1638 0 -1638 -37 -18 c-119 -57 -288
-104 -473 -133 -85 -13 -175 -17 -345 -17 -202 0 -243 3 -334 22 -282 62 -468
185 -560 372 -49 100 -85 235 -100 378 -7 70 -11 516 -11 1387 l0 1285 -460 0
-461 0 4 -1362z"/>
<path d="M39052 2957 c-45 -14 -118 -80 -145 -131 -17 -32 -22 -58 -22 -116 0
-90 22 -138 89 -197 126 -111 320 -74 398 76 58 110 27 254 -70 328 -23 18
-59 37 -80 43 -46 12 -126 11 -170 -3z"/>
<path d="M26879 2837 c-55 -37 -79 -81 -79 -147 0 -102 68 -170 170 -170 102
0 170 68 170 170 0 102 -68 170 -170 170 -43 0 -65 -6 -91 -23z"/>
<path d="M17457 2625 c-53 -107 -97 -200 -97 -205 0 -6 46 -10 118 -10 l117 0
115 197 c63 108 117 200 118 205 2 4 -59 8 -135 8 l-138 0 -98 -195z"/>
<path d="M37766 2638 c-3 -18 -13 -103 -21 -188 -9 -85 -18 -173 -21 -196 l-6
-40 -101 -13 c-56 -7 -114 -15 -129 -18 l-28 -5 0 -144 0 -144 130 0 130 0 0
-349 c0 -387 7 -456 59 -568 55 -117 169 -203 318 -240 101 -25 342 -22 445 5
77 21 178 66 178 80 0 20 -51 286 -55 290 -3 3 -22 -4 -43 -15 -59 -33 -151
-56 -227 -56 -120 0 -197 51 -224 148 -7 25 -11 163 -11 373 l0 332 230 0 230
0 0 165 0 165 -230 0 -230 0 0 225 0 225 -195 0 -194 0 -5 -32z"/>
<path d="M14700 1685 l0 -935 140 0 140 0 2 719 3 719 275 -489 275 -489 105
0 106 0 274 489 275 488 3 -718 2 -719 140 0 140 0 0 935 0 936 -151 -3 -151
-3 -317 -567 c-174 -312 -318 -567 -321 -568 -3 0 -147 255 -321 568 l-315
567 -152 3 -152 3 0 -936z"/>
<path d="M31199 2250 c-117 -11 -247 -36 -351 -67 l-88 -26 0 -1074 0 -1073
220 0 220 0 0 370 c0 204 3 370 7 370 3 0 42 -7 86 -16 102 -21 371 -15 462
11 189 52 348 178 423 335 48 102 70 194 79 333 11 186 -27 379 -98 504 -94
165 -274 277 -507 318 -106 19 -337 27 -453 15z m351 -341 c117 -34 201 -118
236 -234 21 -73 29 -210 15 -289 -28 -160 -90 -248 -219 -309 -64 -31 -73 -32
-187 -32 -90 0 -129 5 -157 17 l-38 17 0 411 0 410 26 10 c40 16 153 28 209
23 28 -2 79 -13 115 -24z"/>
<path d="M32947 2250 c-97 -11 -302 -50 -384 -75 -37 -11 -53 -21 -53 -33 0
-21 49 -294 53 -299 2 -1 42 8 88 22 217 66 502 87 610 46 98 -37 139 -102
139 -221 l0 -70 -195 0 c-291 0 -467 -25 -577 -81 -148 -75 -228 -258 -199
-453 25 -169 105 -261 277 -320 132 -44 193 -51 464 -51 272 1 376 13 580 67
l85 23 3 475 c3 521 -2 576 -54 687 -61 129 -202 225 -384 263 -112 24 -327
33 -453 20z m453 -1054 l0 -184 -52 -13 c-31 -8 -104 -14 -173 -14 -104 1
-127 4 -173 24 -156 70 -173 260 -29 330 65 32 115 39 280 40 l147 1 0 -184z"/>
<path d="M35665 2250 c-145 -15 -432 -74 -450 -92 -4 -3 45 -308 51 -316 1 -2
31 5 66 16 183 57 430 89 553 71 148 -21 213 -88 222 -229 l6 -80 -204 0
c-299 0 -437 -19 -564 -79 -81 -37 -125 -78 -162 -148 -37 -70 -53 -140 -53
-236 0 -219 103 -345 332 -406 133 -36 228 -44 456 -38 227 5 328 18 515 64
l107 26 0 501 c0 537 -2 561 -52 666 -26 53 -96 131 -155 172 -55 37 -158 76
-252 94 -94 18 -311 25 -416 14z m445 -1054 l0 -184 -52 -12 c-212 -46 -404
-5 -459 100 -33 61 -22 149 24 198 56 60 138 80 335 81 l152 1 0 -184z"/>
<path d="M34426 2234 c-95 -14 -215 -45 -272 -69 l-34 -14 0 -700 0 -701 215
0 215 0 2 572 3 572 45 15 c60 19 281 21 333 3 21 -8 41 -11 44 -8 7 6 64 308
60 313 -2 1 -43 9 -91 18 -111 19 -395 19 -520 -1z"/>
<path d="M17285 2213 c-72 -11 -223 -44 -287 -63 -55 -17 -68 -25 -64 -38 3
-9 13 -57 22 -105 14 -72 20 -88 33 -84 216 65 393 93 536 84 163 -10 255 -56
304 -151 21 -40 26 -67 29 -147 l4 -97 -283 -5 c-322 -5 -392 -16 -521 -84
-130 -68 -187 -164 -195 -334 -9 -165 42 -281 158 -358 135 -90 265 -115 569
-108 221 4 317 17 473 59 l78 21 -3 506 c-4 455 -6 512 -22 561 -44 135 -117
223 -228 278 -112 54 -164 64 -378 67 -107 2 -208 1 -225 -2z m575 -1022 l0
-249 -47 -11 c-229 -52 -481 -28 -590 55 -107 82 -108 286 -1 367 87 67 180
85 436 86 l202 1 0 -249z"/>
<path d="M18780 2205 c-255 -54 -378 -172 -388 -374 -8 -149 29 -242 127 -319
65 -52 119 -71 330 -121 210 -50 307 -88 355 -141 79 -87 52 -197 -63 -254
-78 -39 -146 -51 -286 -50 -147 1 -219 13 -353 56 -52 16 -96 27 -99 25 -6 -7
-42 -166 -43 -188 0 -19 106 -57 240 -86 119 -25 473 -26 573 0 146 37 262
119 312 221 76 156 45 359 -71 466 -66 60 -128 86 -315 129 -358 83 -434 128
-426 254 3 49 8 62 36 91 71 73 218 106 380 87 95 -12 228 -49 294 -83 22 -11
41 -18 43 -16 3 4 44 192 44 205 0 10 -123 57 -210 80 -119 32 -374 41 -480
18z"/>
<path d="M23075 2205 c-97 -16 -202 -45 -277 -77 l-48 -20 0 -679 0 -679 135
0 135 0 0 594 0 594 52 22 c128 55 353 64 473 20 80 -30 135 -87 160 -166 17
-54 19 -104 23 -561 l3 -503 125 0 125 0 -3 528 c-3 348 -8 537 -15 557 -6 17
-14 38 -18 47 -9 23 51 60 150 93 207 70 462 28 533 -87 49 -79 52 -117 52
-645 l0 -493 141 0 140 0 -3 518 c-4 448 -7 525 -21 575 -44 152 -125 253
-249 312 -116 55 -194 68 -393 62 -194 -5 -273 -22 -413 -87 l-83 -39 -50 35
c-27 20 -82 48 -122 62 -67 24 -86 26 -267 29 -133 1 -224 -3 -285 -12z"/>
<path d="M25685 2206 c-198 -46 -358 -163 -434 -318 -60 -122 -74 -202 -74
-408 -1 -160 2 -196 21 -265 36 -130 76 -201 161 -285 87 -86 191 -144 326
-181 112 -30 407 -38 553 -15 118 18 292 72 292 89 0 10 -50 186 -55 195 -1 1
-24 -7 -51 -18 -96 -42 -202 -61 -365 -67 -177 -7 -260 6 -366 57 -142 66
-233 210 -233 365 l0 35 550 0 549 0 7 37 c4 20 4 91 1 157 -16 320 -150 517
-411 603 -72 23 -100 26 -246 29 -115 3 -183 -1 -225 -10z m381 -220 c72 -33
123 -81 159 -153 26 -54 55 -177 55 -239 l0 -34 -379 0 c-208 0 -393 3 -410 6
-27 6 -31 11 -31 39 0 108 51 234 120 299 91 85 186 118 330 113 78 -3 107 -9
156 -31z"/>
<path d="M27970 2214 c-190 -36 -372 -134 -461 -247 -55 -69 -106 -173 -131
-266 -30 -110 -30 -362 0 -472 55 -202 167 -334 367 -430 133 -64 185 -74 390
-74 208 0 255 10 404 81 128 62 230 162 289 284 66 134 77 189 77 380 0 143
-3 176 -23 245 -56 194 -173 337 -343 419 -141 67 -189 78 -379 81 -91 2 -176
1 -190 -1z m344 -237 c142 -52 236 -144 283 -279 21 -58 27 -98 30 -193 8
-207 -38 -349 -143 -443 -98 -88 -217 -132 -354 -132 -235 0 -419 136 -477
351 -21 80 -23 280 -4 359 45 183 171 307 358 355 85 21 220 13 307 -18z"/>
<path d="M29400 2200 c-58 -10 -136 -30 -175 -43 l-70 -24 -3 -691 -2 -692
140 0 140 0 2 606 3 607 40 15 c81 29 327 28 407 -3 11 -5 18 15 33 94 10 55
19 104 19 108 2 18 -111 35 -264 38 -134 4 -185 1 -270 -15z"/>
<path d="M38920 1485 l0 -735 220 0 220 0 0 735 0 735 -220 0 -220 0 0 -735z"/>
<path d="M20315 2171 c3 -10 145 -333 314 -718 260 -586 312 -699 330 -701 29
-5 26 -13 -74 -217 -94 -189 -141 -252 -219 -292 -71 -36 -177 -42 -264 -15
l-62 20 -5 -22 c-29 -126 -35 -153 -35 -167 0 -55 291 -76 423 -31 171 59 263
162 426 472 55 106 751 1668 751 1686 0 3 -66 3 -146 2 l-146 -3 -249 -575
c-138 -316 -251 -575 -252 -577 -2 -1 -118 258 -258 577 l-254 580 -143 0
c-136 0 -143 -1 -137 -19z"/>
<path d="M26840 1523 c0 -842 -8 -940 -82 -1087 -36 -72 -125 -161 -191 -194
-53 -26 -53 -24 -32 -142 8 -47 15 -87 15 -89 0 -13 87 15 169 55 223 109 349
311 381 614 5 53 10 407 10 803 l0 707 -135 0 -135 0 0 -667z"/>
</g>
</svg>
